# xmcd CD database file
#
# Track frame offsets:
#	150
#	6959
#	25314
#	42843
#	68911
#	92691
#	114661
#	132435
#	162211
#	189789
#	205326
#	234338
#
# Disc length: 3408 seconds
#
# Revision: 1
# Processed by: cddbd v1.5.2PL0 Copyright (c) Steve Scherf et al.
# Submitted via: CDex 1.51
#
DISCID=990d4e0c
DTITLE=Salsa Verde - InCubaCion
DYEAR=2001
DGENRE=Salsa
TTITLE0=INCUBACIÓN
TTITLE1=PA´AQUI,PA´
TTITLE2=BONGÓ
TTITLE3=BLUES A PUERT RICO
TTITLE4=ANORADO ENQUENTRO
TTITLE5=AYER
TTITLE6=LA SANDUNGUITA
TTITLE7=QUÉ TE PASA LOCO
TTITLE8=NO ME HAGAS SUFRIR
TTITLE9=LA PRINCESA
TTITLE10=MEMORIA
TTITLE11=GUARARÉ
EXTD=YEAR: 2001
EXTT0=
EXTT1=
EXTT2=
EXTT3=
EXTT4=
EXTT5=
EXTT6=
EXTT7=
EXTT8=
EXTT9=
EXTT10=
EXTT11=
PLAYORDER=
